<svg width="18" height="18" viewBox="0 0 18 18" fill="none" xmlns="http://www.w3.org/2000/svg">
<path d="M0.651888 10.9534C0.474677 12.0809 1.26695 12.8635 2.237 13.2535C5.95596 14.7488 11.1313 14.7488 14.8502 13.2535C15.8203 12.8635 16.6126 12.0809 16.4354 10.9534C16.3264 10.2604 15.7879 9.68344 15.3889 9.12C14.8664 8.37294 14.8144 7.5581 14.8143 6.69118C14.8143 3.34092 12.0068 0.625 8.54362 0.625C5.08039 0.625 2.27289 3.34092 2.27289 6.69118C2.27281 7.5581 2.22089 8.37294 1.69829 9.12C1.29932 9.68344 0.760797 10.2604 0.651888 10.9534Z" stroke="#606060" stroke-width="1.25" stroke-linecap="round" stroke-linejoin="round"/>
<path d="M6.04297 16.4584C6.70641 16.9766 7.58253 17.2917 8.54297 17.2917C9.50341 17.2917 10.3795 16.9766 11.043 16.4584" stroke="#606060" stroke-width="1.25" stroke-linecap="round" stroke-linejoin="round"/>
</svg>
