<svg width="20" height="20" viewBox="0 0 20 20" fill="none" xmlns="http://www.w3.org/2000/svg">
<path d="M9.99984 14.1667C8.60513 14.1667 7.39126 15.221 6.76455 16.7761C6.46522 17.5188 6.89474 18.3334 7.46548 18.3334H12.5342C13.1049 18.3334 13.5345 17.5188 13.2351 16.7761C12.6084 15.221 11.3945 14.1667 9.99984 14.1667Z" stroke="#606060" stroke-width="1.25" stroke-linecap="round"/>
<path d="M15.4163 4.16675H16.4182C17.4189 4.16675 17.9193 4.16675 18.1803 4.48122C18.4413 4.79568 18.3328 5.26769 18.1157 6.21171L17.7901 7.62764C17.3004 9.75723 15.5087 11.3408 13.333 11.6667" stroke="#606060" stroke-width="1.25" stroke-linecap="round" stroke-linejoin="round"/>
<path d="M4.58317 4.16675H3.58133C2.58061 4.16675 2.08025 4.16675 1.81921 4.48122C1.55816 4.79568 1.66671 5.26769 1.88379 6.21171L2.2094 7.62764C2.69912 9.75723 4.49077 11.3408 6.6665 11.6667" stroke="#606060" stroke-width="1.25" stroke-linecap="round" stroke-linejoin="round"/>
<path d="M9.99967 14.1667C12.517 14.1667 14.6372 10.2817 15.2745 4.99249C15.4507 3.52973 15.5388 2.79836 15.072 2.23255C14.6052 1.66675 13.8516 1.66675 12.3442 1.66675H7.65516C6.1478 1.66675 5.39412 1.66675 4.92732 2.23255C4.46051 2.79836 4.54864 3.52973 4.72488 4.99249C5.36218 10.2817 7.48237 14.1667 9.99967 14.1667Z" stroke="#606060" stroke-width="1.25" stroke-linecap="round"/>
</svg>
