<svg width="20" height="20" viewBox="0 0 20 20" fill="none" xmlns="http://www.w3.org/2000/svg">
<path d="M11.666 1.66663H8.33268C5.59999 1.66663 4.23365 1.66663 3.2651 2.34481C2.90677 2.59571 2.5951 2.90738 2.3442 3.26571C1.66602 4.23426 1.66602 5.6006 1.66602 8.33329C1.66602 11.066 1.66602 12.4323 2.3442 13.4009C2.5951 13.7592 2.90677 14.0709 3.2651 14.3218C4.23365 15 5.59999 15 8.33268 15H11.666C14.3987 15 15.7651 15 16.7336 14.3218C17.0919 14.0709 17.4036 13.7592 17.6545 13.4009C18.3327 12.4323 18.3327 11.066 18.3327 8.33329C18.3327 5.6006 18.3327 4.23426 17.6545 3.26571C17.4036 2.90738 17.0919 2.59571 16.7336 2.34481C15.7651 1.66663 14.3987 1.66663 11.666 1.66663Z" stroke="#606060" stroke-width="1.25" stroke-linecap="round"/>
<path d="M9.16602 12.5H10.8327" stroke="#606060" stroke-width="1.25" stroke-linecap="round" stroke-linejoin="round"/>
<path d="M12.0827 18.3333L11.8198 17.9843C11.2271 17.1974 11.0801 15.9953 11.455 15M7.91602 18.3333L8.17893 17.9843C8.77163 17.1974 8.91856 15.9953 8.54371 15" stroke="#606060" stroke-width="1.25" stroke-linecap="round"/>
<path d="M5.83203 18.3333H14.1654" stroke="#606060" stroke-width="1.25" stroke-linecap="round"/>
</svg>
