<svg width="20" height="20" viewBox="0 0 20 20" fill="none" xmlns="http://www.w3.org/2000/svg">
<path d="M4.8186 3.48494C5.35848 3.06933 5.62841 2.86152 5.93998 2.72769C6.08125 2.66701 6.22814 2.61798 6.3789 2.58117C6.71142 2.5 7.064 2.5 7.76916 2.5H12.231C12.9362 2.5 13.2887 2.5 13.6213 2.58117C13.772 2.61798 13.9189 2.66701 14.0602 2.72769C14.3718 2.86152 14.6417 3.06933 15.1816 3.48494C16.9704 4.86207 17.8649 5.55064 18.1715 6.44232C18.3079 6.83894 18.3589 7.25607 18.3216 7.67051C18.2378 8.60223 17.5317 9.45496 16.1195 11.1604L12.7916 15.1794C11.5106 16.7265 10.87 17.5 10.0001 17.5C9.13012 17.5 8.4896 16.7265 7.20856 15.1794L3.88067 11.1604C2.46848 9.45496 1.76238 8.60223 1.67858 7.67051C1.64131 7.25607 1.69228 6.83894 1.82867 6.44232C2.13528 5.55064 3.02972 4.86207 4.8186 3.48494Z" stroke="#8A8A8A" stroke-width="1.25"/>
<path d="M8.3335 7.08331H11.6668" stroke="#8A8A8A" stroke-width="1.25" stroke-linecap="round" stroke-linejoin="round"/>
</svg>
