<svg width="18" height="17" viewBox="0 0 18 17" fill="none" xmlns="http://www.w3.org/2000/svg">
<path d="M15.1575 10.9909C15.928 10.2261 16.5229 9.46597 16.9116 8.92093C17.165 8.56566 17.2917 8.38803 17.2917 8.12508C17.2917 7.86214 17.165 7.6845 16.9116 7.32924C15.7733 5.73295 12.866 2.29175 8.95833 2.29175C8.20183 2.29175 7.48283 2.42072 6.80689 2.64031M4.58118 3.74793C2.90099 4.88108 1.66013 6.41063 1.00503 7.32924C0.751678 7.6845 0.625 7.86214 0.625 8.12508C0.625 8.38803 0.751678 8.56566 1.00503 8.92093C2.14341 10.5172 5.05065 13.9584 8.95833 13.9584C10.6173 13.9584 12.0959 13.3382 13.3355 12.5022" stroke="#606060" stroke-width="1.25" stroke-linecap="round" stroke-linejoin="round"/>
<path d="M7.17289 6.45833C6.7312 6.90003 6.45801 7.51022 6.45801 8.18422C6.45801 9.53223 7.55078 10.625 8.89878 10.625C9.57279 10.625 10.183 10.3518 10.6247 9.91011" stroke="#606060" stroke-width="1.25" stroke-linecap="round"/>
<path d="M1.45801 0.625L16.458 15.625" stroke="#606060" stroke-width="1.25" stroke-linecap="round" stroke-linejoin="round"/>
</svg>
