<svg width="20" height="20" viewBox="0 0 20 20" fill="none" xmlns="http://www.w3.org/2000/svg">
<path d="M11.8871 15.3099C12.1506 14.506 12.2823 14.1041 12.5514 13.8276C12.6793 13.6963 12.8277 13.5875 12.9907 13.5057C13.3337 13.3335 13.7503 13.3335 14.5836 13.3335C15.4168 13.3335 15.8335 13.3335 16.1765 13.5057C16.3394 13.5875 16.4879 13.6963 16.6157 13.8276C16.8848 14.1041 17.0166 14.506 17.2801 15.3099L17.5521 16.1398C17.8802 17.1408 18.0443 17.6413 17.799 17.9874C17.5537 18.3335 17.0349 18.3335 15.9973 18.3335H13.1699C12.1323 18.3335 11.6134 18.3335 11.3682 17.9874C11.1229 17.6413 11.2869 17.1408 11.6151 16.1398L11.8871 15.3099Z" stroke="#606060" stroke-width="1.25"/>
<path d="M7.30359 8.64317C7.56709 7.83929 7.69884 7.43734 7.96794 7.1609C8.09579 7.02955 8.24424 6.92075 8.40719 6.83894C8.75019 6.66675 9.16682 6.66675 10.0001 6.66675C10.8333 6.66675 11.25 6.66675 11.593 6.83894C11.7559 6.92075 11.9044 7.02955 12.0322 7.1609C12.3013 7.43734 12.4331 7.83929 12.6966 8.64317L12.9686 9.47303C13.2967 10.4741 13.4608 10.9746 13.2155 11.3207C12.9702 11.6667 12.4514 11.6667 11.4138 11.6667H8.58639C7.54877 11.6667 7.02995 11.6667 6.78467 11.3207C6.53938 10.9746 6.70345 10.4741 7.03157 9.47303L7.30359 8.64317Z" stroke="#606060" stroke-width="1.25"/>
<path d="M2.72034 15.3099C2.98384 14.506 3.11559 14.1041 3.38469 13.8276C3.51254 13.6963 3.66098 13.5875 3.82394 13.5057C4.16693 13.3335 4.58357 13.3335 5.41683 13.3335C6.25009 13.3335 6.66673 13.3335 7.00972 13.5057C7.17267 13.5875 7.32112 13.6963 7.44897 13.8276C7.71807 14.1041 7.84982 14.506 8.11332 15.3099L8.38534 16.1398C8.71346 17.1408 8.87753 17.6413 8.63224 17.9874C8.38696 18.3335 7.86815 18.3335 6.83052 18.3335H4.00314C2.96551 18.3335 2.4467 18.3335 2.20142 17.9874C1.95613 17.6413 2.12019 17.1408 2.44832 16.1398L2.72034 15.3099Z" stroke="#606060" stroke-width="1.25"/>
<path d="M10 1.66675V3.33341M6.25 2.91675L7.5 4.16675M13.75 2.91675L12.5 4.16675" stroke="#606060" stroke-width="1.25" stroke-linecap="round"/>
</svg>
