<svg width="15" height="18" viewBox="0 0 15 18" fill="none" xmlns="http://www.w3.org/2000/svg">
<path d="M0.848176 14.6622C1.03558 16.0541 2.18844 17.1445 3.59138 17.209C4.7719 17.2633 5.97109 17.2916 7.29167 17.2916C8.61225 17.2916 9.81144 17.2633 10.992 17.209C12.3949 17.1445 13.5478 16.0541 13.7352 14.6622C13.8575 13.7538 13.9583 12.8229 13.9583 11.8749C13.9583 10.9269 13.8575 9.99601 13.7352 9.08763C13.5478 7.69577 12.3949 6.60533 10.992 6.54083C9.81144 6.48656 8.61225 6.45825 7.29167 6.45825C5.97109 6.45825 4.77189 6.48656 3.59138 6.54083C2.18844 6.60533 1.03558 7.69577 0.848176 9.08763C0.725871 9.99601 0.625 10.9269 0.625 11.8749C0.625 12.8229 0.725872 13.7538 0.848176 14.6622Z" stroke="#606060" stroke-width="1.25"/>
<path d="M3.54199 6.45833L3.54199 4.375C3.54199 2.30393 5.22092 0.625 7.29199 0.625C9.36306 0.625 11.042 2.30393 11.042 4.375L11.042 6.45833" stroke="#606060" stroke-width="1.25" stroke-linecap="round" stroke-linejoin="round"/>
<path d="M10.625 11.8667V11.8751" stroke="#606060" stroke-width="1.66667" stroke-linecap="round" stroke-linejoin="round"/>
<path d="M7.29199 11.8667V11.8751" stroke="#606060" stroke-width="1.66667" stroke-linecap="round" stroke-linejoin="round"/>
<path d="M3.95801 11.8667V11.8751" stroke="#606060" stroke-width="1.66667" stroke-linecap="round" stroke-linejoin="round"/>
</svg>
