<svg width="20" height="20" viewBox="0 0 20 20" fill="none" xmlns="http://www.w3.org/2000/svg">
<path d="M3.33398 7.49996C3.33398 4.7501 3.33398 3.37517 4.3103 2.5209C5.28661 1.66663 6.85795 1.66663 10.0007 1.66663C13.1433 1.66663 14.7147 1.66663 15.691 2.5209C16.6673 3.37517 16.6673 4.7501 16.6673 7.49996V12.5C16.6673 15.2498 16.6673 16.6247 15.691 17.479C14.7147 18.3333 13.1433 18.3333 10.0007 18.3333C6.85795 18.3333 5.28661 18.3333 4.3103 17.479C3.33398 16.6247 3.33398 15.2498 3.33398 12.5V7.49996Z" stroke="#606060" stroke-width="1.25" stroke-linecap="round"/>
<path d="M10.5246 11.8722C10.384 12.0075 10.1962 12.0832 10.0007 12.0832C9.80523 12.0832 9.61739 12.0075 9.47686 11.8722C8.18994 10.6252 6.46531 9.23214 7.30636 7.20973C7.76111 6.11622 8.85271 5.4165 10.0007 5.4165C11.1487 5.4165 12.2403 6.11622 12.6951 7.20973C13.5351 9.22959 11.8147 10.6295 10.5246 11.8722Z" stroke="#606060" stroke-width="1.25"/>
<path d="M10 8.33325H10.0075" stroke="#606060" stroke-width="1.66667" stroke-linecap="round" stroke-linejoin="round"/>
<path d="M9.16797 15.8333H10.8346" stroke="#606060" stroke-width="1.25" stroke-linecap="round" stroke-linejoin="round"/>
</svg>
