<svg width="20" height="20" viewBox="0 0 20 20" fill="none" xmlns="http://www.w3.org/2000/svg">
<path d="M17.4522 14.0297C16.9053 10.739 15.2027 8.2886 13.7225 6.84933C13.2917 6.43051 13.0764 6.2211 12.6007 6.0273C12.1249 5.8335 11.716 5.8335 10.8982 5.8335H9.10183C8.28401 5.8335 7.87508 5.8335 7.39935 6.0273C6.92361 6.2211 6.70826 6.43051 6.27753 6.84933C4.79735 8.2886 3.09467 10.739 2.54772 14.0297C2.14077 16.478 4.39939 18.3335 6.9236 18.3335H13.0764C15.6006 18.3335 17.8592 16.478 17.4522 14.0297Z" stroke="#606060" stroke-width="1.25" stroke-linecap="round" stroke-linejoin="round"/>
<path d="M6.04735 3.70247C5.87542 3.45223 5.62623 3.11257 6.14099 3.03512C6.6701 2.95551 7.2195 3.3177 7.75729 3.31026C8.2438 3.30352 8.49166 3.08774 8.75758 2.77965C9.03758 2.45522 9.47116 1.66675 10.0002 1.66675C10.5292 1.66675 10.9627 2.45522 11.2427 2.77965C11.5087 3.08774 11.7565 3.30352 12.243 3.31026C12.7808 3.3177 13.3302 2.95551 13.8593 3.03512C14.3741 3.11257 14.1249 3.45223 13.953 3.70247L13.1756 4.83395C12.8431 5.31796 12.6768 5.55997 12.3288 5.6967C11.9809 5.83341 11.5312 5.83341 10.632 5.83341H9.36833C8.46908 5.83341 8.01941 5.83341 7.67146 5.6967C7.32351 5.55997 7.15725 5.31796 6.8247 4.83395L6.04735 3.70247Z" stroke="#606060" stroke-width="1.25" stroke-linejoin="round"/>
<path d="M11.3554 10.7656C11.1753 10.1005 10.2582 9.50031 9.15749 9.9493C8.05675 10.3983 7.88189 11.8429 9.54689 11.9963C10.2994 12.0657 10.7901 11.9158 11.2393 12.3397C11.6885 12.7636 11.7719 13.9424 10.6236 14.2601C9.47528 14.5778 8.3382 14.0814 8.21436 13.3765M9.86789 9.16064V9.79432M9.86789 14.3579V14.994" stroke="#606060" stroke-width="1.25" stroke-linecap="round" stroke-linejoin="round"/>
</svg>
