<svg width="20" height="20" viewBox="0 0 20 20" fill="none" xmlns="http://www.w3.org/2000/svg">
<path d="M3.7188 3.75C3.45351 3.8567 3.21872 3.99072 3.00556 4.15906C2.83833 4.29113 2.68367 4.43669 2.54335 4.59408C1.66602 5.57814 1.66602 7.0521 1.66602 10C1.66602 12.9479 1.66602 14.4219 2.54335 15.4059C2.68367 15.5633 2.83833 15.7089 3.00556 15.8409C4.05113 16.6667 5.6172 16.6667 8.74935 16.6667H11.2493C13.7429 16.6667 15.2134 16.6667 16.2493 16.25" stroke="white" stroke-width="1.25" stroke-linecap="round" stroke-linejoin="round"/>
<path d="M6.66602 3.34646C7.27243 3.33331 7.96132 3.33331 8.74935 3.33331H11.2493C14.3815 3.33331 15.9476 3.33331 16.9931 4.15904C17.1604 4.29111 17.315 4.43667 17.4553 4.59406C18.3327 5.57812 18.3327 7.05208 18.3327 9.99998C18.3327 11.9272 18.3327 13.2244 18.0876 14.1666" stroke="white" stroke-width="1.25" stroke-linecap="round" stroke-linejoin="round"/>
<path d="M1.66602 1.66666L18.3327 18.3333" stroke="white" stroke-width="1.25" stroke-linecap="round"/>
<path d="M11.4502 11.4518C11.0717 11.8412 10.5423 12.083 9.95638 12.083C8.80579 12.083 7.87305 11.1503 7.87305 9.99969C7.87305 9.41379 8.1149 8.88439 8.50422 8.50586" stroke="white" stroke-width="1.25" stroke-linecap="round"/>
<path d="M4.16602 10L4.99935 10" stroke="white" stroke-width="1.25" stroke-linecap="round"/>
<path d="M15 10L15.8333 10" stroke="white" stroke-width="1.25" stroke-linecap="round"/>
</svg>
