<svg width="20" height="20" viewBox="0 0 20 20" fill="none" xmlns="http://www.w3.org/2000/svg">
<path d="M7.91699 18.0706C8.58287 18.242 9.28095 18.3332 10.0003 18.3332C14.6027 18.3332 18.3337 14.6022 18.3337 9.99984C18.3337 5.39746 14.6027 1.6665 10.0003 1.6665C5.39795 1.6665 1.66699 5.39746 1.66699 9.99984C1.66699 10.2811 1.68093 10.5591 1.70814 10.8332" stroke="#606060" stroke-width="1.25" stroke-linecap="round" stroke-linejoin="round"/>
<path d="M4.18456 11.6665L2.38383 13.402C1.41677 14.3501 1.43346 15.8767 2.40052 16.8088C3.38425 17.7408 4.96821 17.7248 5.93527 16.7927C6.919 15.8446 6.90232 14.318 5.93527 13.3859L4.18456 11.6665Z" stroke="#606060" stroke-width="1.25" stroke-linejoin="round"/>
<path d="M6.67447 7.03516H6.66699M13.3337 7.03516H13.3262" stroke="#606060" stroke-width="1.66667" stroke-linecap="round" stroke-linejoin="round"/>
<path d="M12.5003 13.3333C11.804 12.8101 10.9383 12.5 10.0003 12.5C9.24138 12.5 8.52984 12.703 7.91699 13.0576" stroke="#606060" stroke-width="1.25" stroke-linecap="round" stroke-linejoin="round"/>
</svg>
