<svg width="20" height="20" viewBox="0 0 20 20" fill="none" xmlns="http://www.w3.org/2000/svg">
<path d="M7.91602 12.5L14.166 6.25" stroke="black" stroke-width="1.25" stroke-linecap="round" stroke-linejoin="round"/>
<path d="M6.67223 6.39911L12.7728 3.51571C15.3076 2.31763 16.575 1.71859 17.3834 2.31955C18.1918 2.9205 17.9609 4.29003 17.4989 7.02909L16.7032 11.7474C16.4012 13.5383 16.2501 14.4338 15.5827 14.8243C14.9152 15.2148 14.0481 14.9149 12.3141 14.3151L7.00925 12.4802C3.76625 11.3585 2.14475 10.7976 2.08376 9.69713C2.02277 8.59666 3.57259 7.86414 6.67223 6.39911Z" stroke="black" stroke-width="1.25" stroke-linecap="round" stroke-linejoin="round"/>
<path d="M7.91602 12.9167V14.7729C7.91602 16.7509 7.91602 17.7399 8.50786 17.8976C9.09971 18.0554 9.72295 17.2325 10.9694 15.5867L11.666 14.5834" stroke="black" stroke-width="1.25" stroke-linecap="round" stroke-linejoin="round"/>
</svg>
