<svg width="17" height="17" viewBox="0 0 17 17" fill="none" xmlns="http://www.w3.org/2000/svg">
<path d="M5.75688 2.88531L5.42133 2.13033C5.20193 1.63669 5.09223 1.38986 4.92817 1.20097C4.72256 0.964241 4.45456 0.790071 4.15473 0.698327C3.91549 0.625122 3.64538 0.625122 3.10517 0.625122C2.31492 0.625122 1.9198 0.625122 1.58811 0.77703C1.19739 0.955974 0.844527 1.34452 0.703939 1.75062C0.584592 2.09537 0.618778 2.44965 0.68715 3.1582C1.41492 10.7003 5.54984 14.8352 13.0919 15.563C13.8005 15.6313 14.1548 15.6655 14.4995 15.5462C14.9056 15.4056 15.2941 15.0527 15.4731 14.662C15.625 14.3303 15.625 13.9352 15.625 13.1449C15.625 12.6047 15.625 12.3346 15.5518 12.0954C15.4601 11.7956 15.2859 11.5276 15.0492 11.322C14.8603 11.1579 14.6134 11.0482 14.1198 10.8288L13.3648 10.4932C12.8302 10.2556 12.5629 10.1368 12.2913 10.111C12.0313 10.0863 11.7692 10.1227 11.5259 10.2175C11.2716 10.3165 11.0469 10.5038 10.5975 10.8783C10.1501 11.2511 9.92643 11.4375 9.65311 11.5374C9.41082 11.6259 9.09046 11.6587 8.83527 11.6211C8.54739 11.5786 8.32695 11.4608 7.88607 11.2252C6.51434 10.4922 5.75794 9.73578 5.02488 8.36405C4.78928 7.92317 4.67148 7.70274 4.62906 7.41486C4.59145 7.15966 4.62423 6.83931 4.71275 6.59701C4.8126 6.32369 4.99901 6.1 5.37182 5.65262C5.74635 5.20319 5.93361 4.97847 6.03262 4.72422C6.12737 4.4809 6.16384 4.21879 6.13912 3.95885C6.11328 3.68722 5.99448 3.41992 5.75688 2.88531Z" stroke="#606060" stroke-width="1.25" stroke-linecap="round"/>
</svg>
