<svg width="17" height="18" viewBox="0 0 17 18" fill="none" xmlns="http://www.w3.org/2000/svg">
<path d="M15.625 8.27778V5.85857C15.625 4.49191 15.625 3.80857 15.2882 3.36274C14.9515 2.91691 14.1901 2.70047 12.6672 2.26758C11.6268 1.97183 10.7097 1.61552 9.97691 1.29024C8.97783 0.846747 8.4783 0.625 8.125 0.625C7.7717 0.625 7.27217 0.846747 6.27309 1.29024C5.54032 1.61552 4.6232 1.97183 3.58277 2.26758C2.05994 2.70047 1.29852 2.91691 0.96176 3.36274C0.625 3.80857 0.625 4.49191 0.625 5.85857V8.27778C0.625 12.9654 4.84398 15.7779 6.9533 16.8912C7.45922 17.1582 7.71218 17.2917 8.125 17.2917C8.53782 17.2917 8.79078 17.1582 9.2967 16.8912C11.406 15.7779 15.625 12.9654 15.625 8.27778Z" stroke="#606060" stroke-width="1.25" stroke-linecap="round"/>
</svg>
