<svg width="20" height="20" viewBox="0 0 20 20" fill="none" xmlns="http://www.w3.org/2000/svg">
<path d="M17.9536 9.20423C18.207 9.5595 18.3337 9.73714 18.3337 10.0001C18.3337 10.263 18.207 10.4407 17.9536 10.7959C16.8152 12.3922 13.908 15.8334 10.0003 15.8334C6.09264 15.8334 3.18541 12.3922 2.04703 10.7959C1.79367 10.4407 1.66699 10.263 1.66699 10.0001C1.66699 9.73714 1.79367 9.5595 2.04703 9.20424C3.18541 7.60795 6.09264 4.16675 10.0003 4.16675C13.908 4.16675 16.8152 7.60795 17.9536 9.20423Z" stroke="#606060" stroke-width="1.25"/>
<path d="M12.5 10C12.5 8.61929 11.3807 7.5 10 7.5C8.61929 7.5 7.5 8.61929 7.5 10C7.5 11.3807 8.61929 12.5 10 12.5C11.3807 12.5 12.5 11.3807 12.5 10Z" stroke="#606060" stroke-width="1.25"/>
</svg>
