<svg width="20" height="20" viewBox="0 0 20 20" fill="none" xmlns="http://www.w3.org/2000/svg">
<path d="M2.5 4.16675H7.02469C7.58195 4.16675 8.10233 3.88825 8.41144 3.42458L9.08856 2.40891C9.39767 1.94525 9.91805 1.66675 10.4753 1.66675H14.2154C14.9328 1.66675 15.5697 2.1258 15.7965 2.80637L16.25 4.16675M17.5 4.16675H6.66667" stroke="#606060" stroke-width="1.25" stroke-linecap="round"/>
<path d="M16.25 4.16675L15.8333 9.58341M3.75 4.16675L4.25384 12.9469C4.38288 15.0892 4.4474 16.1603 4.98224 16.9306C5.24666 17.3114 5.58733 17.6328 5.98254 17.8744C6.46773 18.171 7.05286 18.2876 7.91667 18.3334" stroke="#606060" stroke-width="1.25" stroke-linecap="round"/>
<path d="M9.16667 12.915L10.1136 14.1365C10.59 12.3582 12.4178 11.303 14.196 11.7794C15.1063 12.0233 15.8271 12.6213 16.25 13.3855M17.5 17.0817L16.5531 15.8619C16.0766 17.6402 14.2488 18.6954 12.4706 18.219C11.5815 17.9807 10.8731 17.4046 10.4465 16.6659" stroke="#606060" stroke-width="1.25" stroke-linecap="round" stroke-linejoin="round"/>
</svg>
