<svg width="20" height="20" viewBox="0 0 20 20" fill="none" xmlns="http://www.w3.org/2000/svg">
<path d="M18.3333 9.63895C18.3333 14.0416 14.6018 17.6112 10 17.6112C9.4589 17.6119 8.91937 17.5619 8.38785 17.4621C8.00527 17.3902 7.81398 17.3543 7.68044 17.3747C7.54689 17.3951 7.35765 17.4957 6.97915 17.697C5.90845 18.2664 4.65996 18.4675 3.45926 18.2442C3.91562 17.6829 4.22729 17.0094 4.36481 16.2873C4.44815 15.8457 4.24167 15.4167 3.93241 15.1026C2.52778 13.6763 1.66667 11.7543 1.66667 9.63895C1.66667 5.23633 5.39815 1.66669 10 1.66669C14.6018 1.66669 18.3333 5.23633 18.3333 9.63895Z" stroke="#8A8A8A" stroke-width="1.25" stroke-linejoin="round"/>
<path d="M9.99626 10H10.0037M13.3259 10H13.3333M6.66666 10H6.67414" stroke="#8A8A8A" stroke-width="1.66667" stroke-linecap="round" stroke-linejoin="round"/>
</svg>
