<svg width="20" height="20" viewBox="0 0 20 20" fill="none" xmlns="http://www.w3.org/2000/svg">
<path d="M14.1634 7.51052H14.1701M14.1704 5.84085V3.75375M18.3333 5.65999C18.3333 7.86527 16.4661 9.6533 14.1634 9.6533C13.8926 9.65363 13.6226 9.62859 13.3567 9.57858C13.1653 9.5426 13.0695 9.52465 13.0027 9.53483C12.9359 9.54502 12.8412 9.59544 12.6518 9.69629C12.1161 9.98147 11.4913 10.0822 10.8905 9.97037C11.1189 9.6892 11.2748 9.35184 11.3436 8.99019C11.3853 8.76895 11.282 8.55407 11.1272 8.39678C10.4244 7.68231 9.99349 6.71955 9.99349 5.65999C9.99349 3.4547 11.8607 1.66666 14.1634 1.66666C16.4661 1.66666 18.3333 3.4547 18.3333 5.65999Z" stroke="#8A8A8A" stroke-width="1.25" stroke-linecap="round" stroke-linejoin="round"/>
<path d="M6.25158 18.3334H3.93181C3.6624 18.3334 3.39184 18.2954 3.14439 18.1891C2.33889 17.843 1.9302 17.386 1.73974 17.1002C1.63137 16.9375 1.6468 16.7303 1.76438 16.5741C2.69763 15.3346 4.86142 14.5858 6.25158 14.5858M6.25554 18.3334H8.57531C8.84472 18.3334 9.11528 18.2954 9.36272 18.1891C10.1682 17.843 10.5769 17.386 10.7674 17.1002C10.8757 16.9375 10.8603 16.7303 10.7427 16.5741C9.80948 15.3346 7.6457 14.5858 6.25554 14.5858M8.57115 10.2406C8.57115 11.5167 7.53441 12.5512 6.25554 12.5512C4.97666 12.5512 3.93992 11.5167 3.93992 10.2406C3.93992 8.96455 4.97666 7.93008 6.25554 7.93008C7.53441 7.93008 8.57115 8.96455 8.57115 10.2406Z" stroke="#8A8A8A" stroke-width="1.25" stroke-linecap="round" stroke-linejoin="round"/>
</svg>
