<svg width="20" height="20" viewBox="0 0 20 20" fill="none" xmlns="http://www.w3.org/2000/svg">
<path d="M13.3333 4.16666C13.3333 3.39009 13.3333 3.0018 13.4601 2.69552C13.6293 2.28714 13.9537 1.96268 14.3621 1.79352C14.6684 1.66666 15.0567 1.66666 15.8333 1.66666C16.6098 1.66666 16.9981 1.66666 17.3044 1.79352C17.7128 1.96268 18.0372 2.28714 18.2064 2.69552C18.3333 3.0018 18.3333 3.39009 18.3333 4.16666V7.49999C18.3333 8.27656 18.3333 8.66484 18.2064 8.97113C18.0372 9.37951 17.7128 9.70397 17.3044 9.87312C16.9981 9.99999 16.6098 9.99999 15.8333 9.99999C15.0567 9.99999 14.6684 9.99999 14.3621 9.87312C13.9537 9.70397 13.6293 9.37951 13.4601 8.97113C13.3333 8.66484 13.3333 8.27656 13.3333 7.49999V4.16666Z" stroke="#8A8A8A" stroke-width="1.25"/>
<path d="M13.3333 15.8333C13.3333 15.0567 13.3333 14.6685 13.4601 14.3622C13.6293 13.9538 13.9537 13.6293 14.3621 13.4602C14.6684 13.3333 15.0567 13.3333 15.8333 13.3333C16.6098 13.3333 16.9981 13.3333 17.3044 13.4602C17.7128 13.6293 18.0372 13.9538 18.2064 14.3622C18.3333 14.6685 18.3333 15.0567 18.3333 15.8333C18.3333 16.6099 18.3333 16.9982 18.2064 17.3045C18.0372 17.7128 17.7128 18.0373 17.3044 18.2064C16.9981 18.3333 16.6098 18.3333 15.8333 18.3333C15.0567 18.3333 14.6684 18.3333 14.3621 18.2064C13.9537 18.0373 13.6293 17.7128 13.4601 17.3045C13.3333 16.9982 13.3333 16.6099 13.3333 15.8333Z" stroke="#8A8A8A" stroke-width="1.25"/>
<path d="M1.66663 13.3333C1.66663 11.762 1.66663 10.9763 2.15478 10.4882C2.64294 10 3.42861 10 4.99996 10H6.66663C8.23797 10 9.02365 10 9.5118 10.4882C9.99996 10.9763 9.99996 11.762 9.99996 13.3333V15C9.99996 16.5713 9.99996 17.357 9.5118 17.8452C9.02365 18.3333 8.23797 18.3333 6.66663 18.3333H4.99996C3.42861 18.3333 2.64294 18.3333 2.15478 17.8452C1.66663 17.357 1.66663 16.5713 1.66663 15V13.3333Z" stroke="#8A8A8A" stroke-width="1.25"/>
<path d="M1.66663 4.16666C1.66663 3.39009 1.66663 3.0018 1.79349 2.69552C1.96265 2.28714 2.28711 1.96268 2.69549 1.79352C3.00177 1.66666 3.39006 1.66666 4.16663 1.66666H7.49996C8.27653 1.66666 8.66481 1.66666 8.9711 1.79352C9.37948 1.96268 9.70394 2.28714 9.87309 2.69552C9.99996 3.0018 9.99996 3.39009 9.99996 4.16666C9.99996 4.94323 9.99996 5.33151 9.87309 5.6378C9.70394 6.04618 9.37948 6.37063 8.9711 6.53979C8.66481 6.66666 8.27653 6.66666 7.49996 6.66666H4.16663C3.39006 6.66666 3.00177 6.66666 2.69549 6.53979C2.28711 6.37063 1.96265 6.04618 1.79349 5.6378C1.66663 5.33151 1.66663 4.94323 1.66663 4.16666Z" stroke="#8A8A8A" stroke-width="1.25"/>
</svg>
