<svg width="20" height="20" viewBox="0 0 20 20" fill="none" xmlns="http://www.w3.org/2000/svg">
<path d="M17.4523 14.0295C16.9053 10.7388 15.2027 8.28842 13.7225 6.84915C13.2918 6.43033 13.0764 6.22092 12.6007 6.02712C12.1249 5.83331 11.716 5.83331 10.8982 5.83331H9.10184C8.28402 5.83331 7.87509 5.83331 7.39936 6.02712C6.92362 6.22092 6.70827 6.43033 6.27754 6.84915C4.79736 8.28842 3.09468 10.7388 2.54773 14.0295C2.14078 16.4778 4.3994 18.3333 6.92361 18.3333H13.0764C15.6006 18.3333 17.8593 16.4778 17.4523 14.0295Z" stroke="#8A8A8A" stroke-width="1.25" stroke-linecap="round" stroke-linejoin="round"/>
<path d="M6.04719 3.70238C5.87527 3.45214 5.62608 3.11248 6.14084 3.03503C6.66994 2.95541 7.21935 3.31761 7.75714 3.31016C8.24365 3.30343 8.49151 3.08765 8.75743 2.77956C9.03743 2.45513 9.47101 1.66666 10 1.66666C10.529 1.66666 10.9626 2.45513 11.2426 2.77956C11.5085 3.08765 11.7563 3.30343 12.2428 3.31016C12.7807 3.31761 13.3301 2.95541 13.8592 3.03503C14.3739 3.11248 14.1248 3.45214 13.9528 3.70238L13.1754 4.83386C12.8429 5.31787 12.6767 5.55988 12.3287 5.69661C11.9808 5.83332 11.5311 5.83332 10.6318 5.83332H9.36818C8.46893 5.83332 8.01926 5.83332 7.67131 5.69661C7.32336 5.55988 7.15709 5.31787 6.82455 4.83386L6.04719 3.70238Z" stroke="#8A8A8A" stroke-width="1.25" stroke-linejoin="round"/>
<path d="M11.3556 10.7655C11.1754 10.1004 10.2584 9.50022 9.15766 9.9492C8.05692 10.3982 7.88206 11.8428 9.54707 11.9962C10.2996 12.0656 10.7903 11.9158 11.2395 12.3396C11.6887 12.7635 11.7721 13.9423 10.6238 14.26C9.47545 14.5777 8.33837 14.0813 8.21453 13.3764M9.86806 9.16055V9.79422M9.86806 14.3578V14.9939" stroke="#8A8A8A" stroke-width="1.25" stroke-linecap="round" stroke-linejoin="round"/>
</svg>
