<svg width="20" height="20" viewBox="0 0 20 20" fill="none" xmlns="http://www.w3.org/2000/svg">
<path d="M13.7959 3.33325C14.1816 3.69063 14.6184 4.13747 15.1427 4.67377C16.7142 6.28123 17.5 7.08497 17.5 8.08372C17.5 9.08247 16.7142 9.88621 15.1427 11.4937L9.8088 16.9496C9.60744 17.1556 9.3924 17.339 9.16666 17.4999" stroke="#8A8A8A" stroke-width="1.25" stroke-linecap="round"/>
<path d="M1.66667 13.8461C1.66667 16.3243 3.73942 18.3333 6.2963 18.3333H13.7037C15.8861 18.3333 16.9773 18.3333 17.6553 17.6762C18.3333 17.0191 18.3333 15.9614 18.3333 13.8461C18.3333 13.3398 18.3333 12.8941 18.324 12.5" stroke="#8A8A8A" stroke-width="1.25" stroke-linecap="round"/>
<path d="M1.66667 6.29626C1.66667 4.11383 1.66667 3.02261 2.33788 2.34462C3.00909 1.66663 4.0894 1.66663 6.25 1.66663C8.4106 1.66663 9.49091 1.66663 10.1621 2.34462C10.8333 3.02261 10.8333 4.11383 10.8333 6.29626V13.7037C10.8333 16.2605 8.7813 18.3333 6.25 18.3333C3.71869 18.3333 1.66667 16.2605 1.66667 13.7037V6.29626Z" stroke="#8A8A8A" stroke-width="1.25"/>
<path d="M6.25 14.5833H6.25748" stroke="#8A8A8A" stroke-width="1.66667" stroke-linecap="round" stroke-linejoin="round"/>
<path d="M1.66667 6.66663H10.8333M1.66667 10.8333H10.8333" stroke="#8A8A8A" stroke-width="1.25" stroke-linecap="round" stroke-linejoin="round"/>
</svg>
