<svg width="20" height="20" viewBox="0 0 20 20" fill="none" xmlns="http://www.w3.org/2000/svg">
<path d="M4.43606 8.06909C6.44746 4.50997 7.45315 2.73041 8.83319 2.27232C9.59239 2.02031 10.4102 2.02031 11.1694 2.27232C12.5494 2.73041 13.5551 4.50997 15.5665 8.06909C17.5779 11.6282 18.5836 13.4078 18.2819 14.8578C18.116 15.6555 17.7071 16.379 17.1138 16.9247C16.0355 17.9166 14.0241 17.9166 10.0013 17.9166C5.97851 17.9166 3.96711 17.9166 2.88877 16.9247C2.29553 16.379 1.88663 15.6555 1.72065 14.8578C1.41896 13.4078 2.42466 11.6282 4.43606 8.06909Z" stroke="#B8B8B8" stroke-width="1.25"/>
<path d="M9.99593 13.3333H10.0034" stroke="#B8B8B8" stroke-width="1.66667" stroke-linecap="round" stroke-linejoin="round"/>
<path d="M10 10.8333L10 7.49998" stroke="#B8B8B8" stroke-width="1.25" stroke-linecap="round" stroke-linejoin="round"/>
</svg>
