<svg width="17" height="18" viewBox="0 0 17 18" fill="none" xmlns="http://www.w3.org/2000/svg">
<path d="M14.375 3.54169L13.8586 11.8959C13.7266 14.0304 13.6606 15.0976 13.1256 15.8649C12.8611 16.2443 12.5205 16.5644 12.1256 16.805C11.3268 17.2917 10.2575 17.2917 8.11895 17.2917C5.9776 17.2917 4.90692 17.2917 4.10754 16.8041C3.71233 16.5631 3.37166 16.2424 3.10724 15.8624C2.5724 15.0938 2.50788 14.0251 2.37884 11.8876L1.875 3.54169" stroke="#8A8A8A" stroke-width="1.25" stroke-linecap="round"/>
<path d="M0.625 3.54167H15.625M11.5048 3.54167L10.9359 2.36811C10.558 1.58855 10.369 1.19877 10.0431 0.955672C9.9708 0.90175 9.89424 0.853785 9.81419 0.812251C9.45326 0.625 9.0201 0.625 8.15377 0.625C7.26569 0.625 6.82165 0.625 6.45474 0.8201C6.37342 0.86334 6.29582 0.913246 6.22274 0.969307C5.89303 1.22225 5.70886 1.62629 5.3405 2.43438L4.83577 3.54167" stroke="#8A8A8A" stroke-width="1.25" stroke-linecap="round"/>
</svg>
