<svg width="20" height="20" viewBox="0 0 20 20" fill="none" xmlns="http://www.w3.org/2000/svg">
<path d="M11.8101 17.4088C15.296 17.177 18.0726 14.361 18.3011 10.8257C18.3458 10.1339 18.3458 9.41742 18.3011 8.72558C18.0726 5.19029 15.296 2.37426 11.8101 2.14254C10.6209 2.06349 9.37927 2.06365 8.19247 2.14254C4.70662 2.37426 1.92998 5.19029 1.7015 8.72558C1.65679 9.41742 1.65679 10.1339 1.7015 10.8257C1.78471 12.1133 2.35416 13.3055 3.02456 14.3122C3.41381 15.0169 3.15692 15.8965 2.75148 16.6648C2.45914 17.2188 2.31298 17.4958 2.43034 17.6959C2.5477 17.896 2.80985 17.9024 3.33416 17.9151C4.37102 17.9404 5.07021 17.6464 5.6252 17.2372C5.93997 17.0051 6.09736 16.889 6.20583 16.8757C6.3143 16.8623 6.52777 16.9502 6.95464 17.126C7.3383 17.2841 7.78377 17.3816 8.19247 17.4088C9.37927 17.4876 10.6209 17.4878 11.8101 17.4088Z" stroke="#B8B8B8" stroke-width="1.25" stroke-linejoin="round"/>
<path d="M9.99756 10H10.005M13.3272 10H13.3346M6.66797 10H6.67545" stroke="#B8B8B8" stroke-width="1.66667" stroke-linecap="round" stroke-linejoin="round"/>
</svg>
