<svg width="20" height="20" viewBox="0 0 20 20" fill="none" xmlns="http://www.w3.org/2000/svg">
<path d="M10.0013 16.25C8.89085 16.7687 7.43219 17.0834 5.83464 17.0834C4.94637 17.0834 4.10104 16.9861 3.33464 16.8105C2.01653 16.5086 1.66797 15.7331 1.66797 14.4884V5.51166C1.66797 4.69097 2.53466 4.12729 3.33464 4.31052C4.10104 4.48606 4.94637 4.58335 5.83464 4.58335C7.43219 4.58335 8.89085 4.26866 10.0013 3.75002C11.1118 3.23138 12.5704 2.91669 14.168 2.91669C15.0562 2.91669 15.9016 3.01398 16.668 3.18952C17.9861 3.49142 18.3346 4.26699 18.3346 5.51166V14.4884C18.3346 15.3091 17.4679 15.8727 16.668 15.6895C15.9016 15.514 15.0562 15.4167 14.168 15.4167C12.5704 15.4167 11.1118 15.7314 10.0013 16.25Z" stroke="#B8B8B8" stroke-width="1.25"/>
<path d="M12.0846 10C12.0846 11.1506 11.1519 12.0834 10.0013 12.0834C8.85071 12.0834 7.91797 11.1506 7.91797 10C7.91797 8.84943 8.85071 7.91669 10.0013 7.91669C11.1519 7.91669 12.0846 8.84943 12.0846 10Z" stroke="#B8B8B8" stroke-width="1.25"/>
<path d="M4.58594 10.8334L4.58594 10.8409" stroke="#B8B8B8" stroke-width="1.66667" stroke-linecap="round" stroke-linejoin="round"/>
<path d="M15.418 9.16016L15.418 9.16764" stroke="#B8B8B8" stroke-width="1.66667" stroke-linecap="round" stroke-linejoin="round"/>
</svg>
