<svg width="20" height="20" viewBox="0 0 20 20" fill="none" xmlns="http://www.w3.org/2000/svg">
<path d="M17.3117 15C17.9361 15 18.4328 14.6071 18.8787 14.0576C19.7916 12.9329 18.2928 12.034 17.7211 11.5938C17.14 11.1463 16.4912 10.8928 15.8333 10.8333M15 9.16667C16.1506 9.16667 17.0833 8.23393 17.0833 7.08333C17.0833 5.93274 16.1506 5 15 5" stroke="#B8B8B8" stroke-width="1.25" stroke-linecap="round"/>
<path d="M2.687 15C2.06258 15 1.56592 14.6071 1.11999 14.0576C0.207105 12.9329 1.70592 12.034 2.27757 11.5938C2.85868 11.1463 3.50752 10.8928 4.16536 10.8333M4.58203 9.16667C3.43144 9.16667 2.4987 8.23393 2.4987 7.08333C2.4987 5.93274 3.43144 5 4.58203 5" stroke="#B8B8B8" stroke-width="1.25" stroke-linecap="round"/>
<path d="M6.7352 12.5926C5.88372 13.1191 3.65119 14.1942 5.01095 15.5395C5.67518 16.1966 6.41497 16.6666 7.34505 16.6666H12.6523C13.5824 16.6666 14.3222 16.1966 14.9864 15.5395C16.3462 14.1942 14.1137 13.1191 13.2622 12.5926C11.2655 11.358 8.73191 11.358 6.7352 12.5926Z" stroke="#B8B8B8" stroke-width="1.25" stroke-linecap="round" stroke-linejoin="round"/>
<path d="M12.9154 6.24998C12.9154 7.86081 11.6095 9.16665 9.9987 9.16665C8.38787 9.16665 7.08203 7.86081 7.08203 6.24998C7.08203 4.63915 8.38787 3.33331 9.9987 3.33331C11.6095 3.33331 12.9154 4.63915 12.9154 6.24998Z" stroke="#B8B8B8" stroke-width="1.25"/>
</svg>
